<?xml version="1.0" encoding="UTF-8"?><svg id="a" xmlns="http://www.w3.org/2000/svg" viewBox="0 0 2977 772"><defs><style>.b{fill:#706e6f;}.c{fill:none;}</style></defs><g><g><path class="b" d="M1072.29,598.6c-3.19,5.89-7.87,10.45-14.06,13.68-6.19,3.22-13.62,4.83-22.29,4.83h-24.9v-78.38h24.9c8.67,0,16.1,1.57,22.29,4.72,6.19,3.15,10.88,7.67,14.06,13.57,3.19,5.89,4.78,12.84,4.78,20.85s-1.59,14.84-4.78,20.73Zm-13.67,1.5c5.41-5.26,8.11-12.67,8.11-22.24s-2.69-16.99-8.06-22.29c-5.37-5.3-13.21-7.95-23.51-7.95h-14.01v60.37h14.01c10.23,0,18.05-2.63,23.46-7.89Z"/><path class="b" d="M1106.42,538.73v78.38h-10.12v-78.38h10.12Z"/><path class="b" d="M1175.13,607.11c-1.78,3.19-4.49,5.78-8.12,7.78-3.63,2-8.11,3-13.45,3s-9.8-.95-13.84-2.84c-4.04-1.89-7.26-4.48-9.67-7.78-2.41-3.3-3.8-7.06-4.17-11.29h10.79c.22,2.22,.98,4.39,2.28,6.5,1.3,2.11,3.15,3.85,5.56,5.22,2.41,1.37,5.32,2.06,8.73,2.06,4.45,0,7.86-1.18,10.23-3.56s3.56-5.41,3.56-9.12c0-3.19-.83-5.78-2.5-7.78s-3.72-3.58-6.17-4.73c-2.45-1.15-5.78-2.39-10.01-3.72-4.97-1.63-8.95-3.17-11.95-4.61-3-1.44-5.56-3.61-7.67-6.5-2.11-2.89-3.17-6.71-3.17-11.45,0-4.07,.98-7.67,2.95-10.78,1.96-3.11,4.78-5.52,8.45-7.23s7.98-2.56,12.95-2.56c7.71,0,13.82,1.87,18.34,5.62,4.52,3.74,7.15,8.5,7.89,14.28h-10.9c-.59-3.11-2.19-5.85-4.78-8.23-2.6-2.37-6.12-3.56-10.56-3.56-4.08,0-7.34,1.06-9.78,3.17-2.45,2.11-3.67,5.1-3.67,8.95,0,3.04,.8,5.5,2.39,7.39,1.59,1.89,3.58,3.38,5.95,4.45,2.37,1.08,5.63,2.28,9.78,3.61,5.04,1.63,9.1,3.19,12.17,4.67s5.69,3.72,7.84,6.73c2.15,3,3.23,6.99,3.23,11.95,0,3.71-.89,7.15-2.67,10.34Z"/><path class="b" d="M1207.03,546.96v26.8h29.8v7.78h-29.8v27.35h33.13v8.23h-43.25v-78.38h43.25v8.23h-33.13Z"/><path class="b" d="M1319.66,617.11h-10.12l-40.69-61.93v61.93h-10.12v-78.38h10.12l40.69,62.04v-62.04h10.12v78.38Zm-33.35-95.84c1.11,.52,2.33,1.26,3.67,2.22,1.33,.89,2.39,1.52,3.17,1.89,.78,.37,1.69,.56,2.72,.56,1.33,0,2.43-.44,3.28-1.33,.85-.89,1.39-2.18,1.61-3.89h5.67c-.52,3.7-1.72,6.56-3.61,8.56-1.89,2-4.28,3-7.17,3-1.56,0-2.91-.26-4.06-.78-1.15-.52-2.43-1.26-3.84-2.23-1.11-.81-2.08-1.41-2.89-1.78-.81-.37-1.71-.56-2.67-.56-2.74,0-4.34,1.74-4.78,5.23h-5.56c.59-3.93,1.79-6.86,3.61-8.78,1.82-1.93,4.17-2.89,7.06-2.89,1.41,0,2.67,.26,3.78,.78Z"/><path class="b" d="M1396.98,542.84c5.82,3.41,10.39,8.17,13.73,14.29,3.33,6.12,5,13.03,5,20.73s-1.67,14.62-5,20.73c-3.34,6.12-7.91,10.88-13.73,14.29-5.82,3.41-12.36,5.12-19.62,5.12s-13.84-1.71-19.74-5.12c-5.89-3.41-10.51-8.17-13.84-14.29-3.34-6.12-5-13.03-5-20.73s1.67-14.62,5-20.73c3.33-6.12,7.95-10.88,13.84-14.29,5.89-3.41,12.47-5.12,19.74-5.12s13.8,1.71,19.62,5.12Zm-34.13,8.06c-4.26,2.48-7.6,6.04-10.01,10.67-2.41,4.63-3.61,10.06-3.61,16.29s1.2,11.56,3.61,16.23c2.41,4.67,5.74,8.25,10.01,10.73,4.26,2.48,9.1,3.72,14.51,3.72s10.14-1.26,14.4-3.78c4.26-2.52,7.6-6.09,10-10.73,2.41-4.63,3.61-10.02,3.61-16.18s-1.21-11.66-3.61-16.29c-2.41-4.63-5.74-8.19-10-10.67-4.26-2.48-9.06-3.72-14.4-3.72s-10.25,1.24-14.51,3.72Z"/><path class="b" d="M1526.51,544.73c6.19,4.52,10.36,10.67,12.51,18.45h-10.67c-1.86-4.74-4.95-8.56-9.28-11.45-4.34-2.89-9.47-4.34-15.4-4.34-5.34,0-10.12,1.24-14.34,3.73-4.22,2.48-7.54,6.02-9.95,10.62s-3.61,10-3.61,16.23,1.22,11.88,3.67,16.51c2.45,4.63,5.83,8.19,10.17,10.67,4.34,2.48,9.32,3.73,14.95,3.73,4.82,0,9.23-1.04,13.23-3.11,4-2.08,7.28-5.1,9.84-9.06,2.56-3.96,4.1-8.62,4.61-13.95h-30.8v-7.56h39.36v9.34c-.67,6.23-2.6,11.86-5.78,16.9-3.19,5.04-7.49,9.04-12.9,12.01-5.41,2.97-11.56,4.45-18.45,4.45-7.56,0-14.23-1.69-20.01-5.06-5.78-3.37-10.29-8.08-13.51-14.12-3.22-6.04-4.83-12.95-4.83-20.73s1.61-14.69,4.83-20.73c3.23-6.04,7.73-10.77,13.51-14.18,5.78-3.41,12.41-5.12,19.9-5.12,9.12,0,16.77,2.26,22.96,6.78Z"/><path class="b" d="M1601.61,617.11l-20.46-32.02h-11.01v32.02h-10.12v-78.38h25.79c8.89,0,15.56,2.13,20.01,6.39,4.45,4.26,6.67,9.91,6.67,16.95,0,6.38-1.78,11.51-5.34,15.4-3.56,3.89-8.71,6.32-15.46,7.28l21.35,32.35h-11.45Zm-31.46-39.36h14.79c11.49,0,17.23-5.04,17.23-15.12s-5.74-15.12-17.23-15.12h-14.79v30.24Z"/><path class="b" d="M1676.32,598.99h-34.47l-6.56,18.12h-10.89l29.01-76.94h11.45l28.91,76.94h-10.9l-6.56-18.12Zm-2.89-7.89l-14.34-39.58-14.34,39.58h28.68Zm3.89-70.27l-23.68,13.01v-7.23l23.68-14.01v8.23Z"/><path class="b" d="M1753.92,538.73v8.23h-34.24v27.13h29.02v7.89h-29.02v35.13h-10.12v-78.38h44.36Z"/><path class="b" d="M1781.61,538.73v78.38h-10.12v-78.38h10.12Z"/><path class="b" d="M1861.77,545.01c6.23,4.71,10.53,11.14,12.9,19.29h-10.68c-2-5.19-5.22-9.32-9.67-12.4-4.45-3.07-9.89-4.61-16.34-4.61-5.11,0-9.69,1.24-13.73,3.72-4.04,2.48-7.23,6.04-9.56,10.67-2.33,4.63-3.5,10.06-3.5,16.29s1.17,11.52,3.5,16.12c2.34,4.6,5.52,8.14,9.56,10.62,4.04,2.48,8.62,3.72,13.73,3.72,6.45,0,11.9-1.54,16.34-4.61,4.45-3.07,7.67-7.21,9.67-12.39h10.68c-2.37,8.15-6.67,14.58-12.9,19.29s-14.12,7.06-23.68,7.06c-7.34,0-13.82-1.69-19.46-5.06-5.63-3.37-10.02-8.08-13.17-14.12-3.15-6.04-4.73-12.91-4.73-20.62s1.57-14.71,4.73-20.79c3.15-6.08,7.54-10.8,13.17-14.18,5.63-3.37,12.12-5.06,19.46-5.06,9.56,0,17.45,2.35,23.68,7.06Z"/><path class="b" d="M1949.31,542.84c5.82,3.41,10.39,8.17,13.73,14.29,3.33,6.12,5,13.03,5,20.73s-1.67,14.62-5,20.73c-3.34,6.12-7.91,10.88-13.73,14.29-5.82,3.41-12.36,5.12-19.62,5.12s-13.84-1.71-19.74-5.12c-5.89-3.41-10.51-8.17-13.84-14.29-3.34-6.12-5-13.03-5-20.73s1.67-14.62,5-20.73c3.33-6.12,7.95-10.88,13.84-14.29,5.89-3.41,12.47-5.12,19.74-5.12s13.8,1.71,19.62,5.12Zm-34.13,8.06c-4.26,2.48-7.6,6.04-10.01,10.67-2.41,4.63-3.61,10.06-3.61,16.29s1.2,11.56,3.61,16.23c2.41,4.67,5.74,8.25,10.01,10.73,4.26,2.48,9.1,3.72,14.51,3.72s10.14-1.26,14.4-3.78c4.26-2.52,7.6-6.09,10-10.73s3.61-10.02,3.61-16.18-1.21-11.66-3.61-16.29c-2.41-4.63-5.74-8.19-10-10.67-4.26-2.48-9.06-3.72-14.4-3.72s-10.25,1.24-14.51,3.72Z"/></g><g><path class="b" d="M566.02,463.31h-67.37v-5.56c12.43-3.6,13.08-17.66,13.08-34.34v-63.44c0-18.32-9.15-27.14-23.87-27.14-12.1,0-25.83,14.72-25.83,27.8v62.79c0,17.99,1.64,31.4,13.41,34.34v5.56h-67.36v-5.56c12.42-3.6,13.08-17.66,13.08-34.34v-63.44c0-18.32-8.83-27.14-23.55-27.14-12.1,0-26.17,15.04-26.17,26.82v64.42c0,17.99,1.97,30.41,13.41,33.68v5.56h-67.04v-5.56c12.42-3.6,12.75-17.01,12.75-33.68v-71.62c0-11.45-2.94-17.33-16.35-24.53v-5.56l57.23-13.08v33.68c8.83-18.97,28.78-33.68,49.38-33.68,22.89,0,36.95,10.47,40.88,34.67,6.87-19.95,29.11-34.67,49.71-34.67,25.51,0,41.2,10.14,41.2,49.71v64.42c0,17.99,1.64,31.4,13.41,34.34v5.56Z"/><path class="b" d="M650.7,457.75v5.56h-67.04v-5.56c12.42-3.93,13.08-17.66,13.08-34.34v-72.6c0-11.12-3.27-15.7-16.68-22.89v-5.56l57.23-13.08v114.13c0,18.32,1.64,31.07,13.41,34.34Zm-36.95-174.63c-12.43,0-22.24-9.81-22.24-22.24s9.81-22.24,22.24-22.24,22.56,9.82,22.56,22.24-10.13,22.24-22.56,22.24Z"/><path class="b" d="M740.95,457.75v5.56h-67.04v-5.56c12.43-3.6,13.08-17.33,13.08-34.02v-165.47c0-11.45-3.27-16.36-16.35-21.26v-5.56l57.23-12.1v204.39c0,17.99,1.64,31.07,13.08,34.02Z"/><path class="b" d="M913.61,440.74l5.56,2.29c-2.61,10.47-17.66,23.22-38.26,23.22,0,0-29.1,0-32.7-26.49-4.91,14.39-24.2,26.49-47.42,26.49,0,0-37.61,0-37.61-33.36,0-35.64,27.46-38.91,84.69-53.3v-20.28c0-34.01-18.97-51.01-41.53-39.24-10.46,5.23-11.77,10.79-9.48,11.12,4.91,.65,9.16,2.94,12.1,7.19,5.89,8.51,3.6,19.95-4.91,25.83-8.51,5.56-19.95,3.6-25.84-4.91-3.92-6.21-4.25-14.06-.98-19.62,3.27-5.56,7.52-14.39,25.51-23.87,14.72-7.84,31.72-6.54,31.72-6.54,42.84,0,54.61,26.82,54.61,65.41v48.72s-.32,22.89,15.7,22.89c0,0,6.87,0,8.83-5.56Zm-65.73-55.26c-32.05,7.19-42.84,22.56-42.84,39.24,0,0,0,21.58,21.26,21.58,11.11,0,18.64-8.83,21.58-16.68v-44.15Z"/><path class="b" d="M1042.47,448.59s-12.43,17.66-45.79,17.66c-39.57,0-59.19-15.05-59.19-15.05v-41.2h5.56c4.91,12.75,15.37,50.69,53.63,50.69,23.22,0,27.14-29.43,2.29-45.78l-33.03-19.95c-31.72-19.29-40.22-45.79-22.24-69.33,0,0,12.43-16.35,45.13-16.35,37.61,0,53.96,9.81,53.96,9.81v36.63h-5.56c-4.25-11.45-14.72-40.88-48.4-40.88-21.26,0-30.41,25.18-1.96,43.17l33.03,20.6c29.11,17.99,38.92,46.44,22.57,69.99Z"/><path class="b" d="M1223.35,387.77c0,42.84-27.8,78.49-77.83,78.49s-77.83-35.64-77.83-78.49,28.12-78.49,77.83-78.49,77.83,35.32,77.83,78.49Zm-48.4,0c0-59.19-5.89-72.92-29.43-72.92s-29.76,13.73-29.76,72.92,6.21,72.92,29.76,72.92,29.43-13.73,29.43-72.92Z"/><path class="b" d="M1313.85,457.75v5.56h-67.04v-5.56c12.43-3.6,13.09-17.33,13.09-34.02v-165.47c0-11.45-3.27-16.36-16.36-21.26v-5.56l57.23-12.1v204.39c0,17.99,1.64,31.07,13.08,34.02Z"/><path class="b" d="M1409,457.75v5.56h-67.04v-5.56c12.43-3.93,13.08-17.66,13.08-34.34v-72.6c0-11.12-3.27-15.7-16.68-22.89v-5.56l57.23-13.08v114.13c0,18.32,1.64,31.07,13.41,34.34Zm-36.95-174.63c-12.42,0-22.23-9.81-22.23-22.24s9.81-22.24,22.23-22.24,22.56,9.82,22.56,22.24-10.14,22.24-22.56,22.24Z"/><path class="b" d="M1543.08,448.59s-12.42,17.66-45.79,17.66c-39.57,0-59.19-15.05-59.19-15.05v-41.2h5.56c4.91,12.75,15.37,50.69,53.62,50.69,23.22,0,27.14-29.43,2.29-45.78l-33.03-19.95c-31.72-19.29-40.22-45.79-22.24-69.33,0,0,12.43-16.35,45.13-16.35,37.61,0,53.96,9.81,53.96,9.81v36.63h-5.56c-4.25-11.45-14.72-40.88-48.4-40.88-21.26,0-30.41,25.18-1.97,43.17l33.03,20.6c29.1,17.99,38.91,46.44,22.56,69.99Z"/><path class="b" d="M1743.11,453.17v5.56l-48.07,7.2c-9.15,1.3-9.15-5.89-9.15-5.89v-20.28c-10.47,19.29-34.67,26.49-50.03,26.49-36.95,0-69.66-29.1-69.66-80.77s34.66-76.2,80.45-76.2c15.04,0,28.78,3.6,39.25,9.81v-62.46c0-11.45-3.27-14.72-16.68-19.63v-5.56l57.23-12.1v212.24c0,16.02,3.28,19.95,16.68,21.59Zm-57.23-83.72c0-41.21-20.28-54.61-38.92-54.61-23.87,0-34.34,17.99-34.34,67.69,0,52.65,10.79,72.27,37.28,72.27,22.24,0,35.98-16.35,35.98-39.25v-46.11Z"/><path class="b" d="M1911.84,440.74l5.56,2.29c-2.61,10.47-17.66,23.22-38.26,23.22,0,0-29.1,0-32.7-26.49-4.91,14.39-24.2,26.49-47.42,26.49,0,0-37.61,0-37.61-33.36,0-35.64,27.46-38.91,84.69-53.3v-20.28c0-34.01-18.97-51.01-41.53-39.24-10.46,5.23-11.77,10.79-9.48,11.12,4.91,.65,9.16,2.94,12.1,7.19,5.89,8.51,3.6,19.95-4.91,25.83-8.51,5.56-19.95,3.6-25.84-4.91-3.92-6.21-4.25-14.06-.98-19.62,3.27-5.56,7.52-14.39,25.51-23.87,14.72-7.84,31.72-6.54,31.72-6.54,42.84,0,54.61,26.82,54.61,65.41v48.72s-.32,22.89,15.7,22.89c0,0,6.87,0,8.83-5.56Zm-65.73-55.26c-32.05,7.19-42.84,22.56-42.84,39.24,0,0,0,21.58,21.26,21.58,11.11,0,18.64-8.83,21.58-16.68v-44.15Z"/><path class="b" d="M1998.15,457.75v5.56h-67.04v-5.56c12.43-3.6,13.08-17.33,13.08-34.02v-165.47c0-11.45-3.27-16.36-16.35-21.26v-5.56l57.23-12.1v204.39c0,17.99,1.64,31.07,13.08,34.02Z"/><path class="b" d="M2268.59,463.31h-67.37v-5.56c12.43-3.6,13.08-17.66,13.08-34.34v-63.44c0-18.32-9.15-27.14-23.87-27.14-12.1,0-25.83,14.72-25.83,27.8v62.79c0,17.99,1.64,31.4,13.41,34.34v5.56h-67.36v-5.56c12.42-3.6,13.08-17.66,13.08-34.34v-63.44c0-18.32-8.83-27.14-23.55-27.14-12.1,0-26.17,15.04-26.17,26.82v64.42c0,17.99,1.97,30.41,13.41,33.68v5.56h-67.04v-5.56c12.42-3.6,12.75-17.01,12.75-33.68v-71.62c0-11.45-2.94-17.33-16.35-24.53v-5.56l57.23-13.08v33.68c8.83-18.97,28.78-33.68,49.38-33.68,22.89,0,36.95,10.47,40.88,34.67,6.87-19.95,29.11-34.67,49.71-34.67,25.51,0,41.2,10.14,41.2,49.71v64.42c0,17.99,1.64,31.4,13.41,34.34v5.56Z"/><path class="b" d="M2437.32,440.74l5.56,2.29c-2.61,10.47-17.66,23.22-38.26,23.22,0,0-29.1,0-32.7-26.49-4.91,14.39-24.2,26.49-47.42,26.49,0,0-37.61,0-37.61-33.36,0-35.64,27.46-38.91,84.69-53.3v-20.28c0-34.01-18.97-51.01-41.53-39.24-10.46,5.23-11.77,10.79-9.48,11.12,4.91,.65,9.16,2.94,12.1,7.19,5.89,8.51,3.6,19.95-4.91,25.83-8.51,5.56-19.95,3.6-25.84-4.91-3.92-6.21-4.25-14.06-.98-19.62,3.27-5.56,7.52-14.39,25.51-23.87,14.72-7.84,31.72-6.54,31.72-6.54,42.84,0,54.61,26.82,54.61,65.41v48.72s-.32,22.89,15.7,22.89c0,0,6.87,0,8.83-5.56Zm-65.73-55.26c-32.05,7.19-42.84,22.56-42.84,39.24,0,0,0,21.58,21.26,21.58,11.11,0,18.64-8.83,21.58-16.68v-44.15Z"/><path class="b" d="M2617.16,451.86v5.56l-48.4,8.51c-8.83,1.3-9.15-6.21-9.15-6.21v-28.78c-7.85,18.64-34.99,35.32-55.26,35.32-25.84,0-41.21-10.79-41.21-50.03v-69.99c0-19.62,.65-22.56-18.32-25.18v-5.56l58.87-6.21v105.96c0,18.32,8.5,27.14,27.47,27.14,9.16,0,21.59-8.18,28.45-21.26v-73.91c0-19.95,1.31-24.2-15.37-26.16v-5.56l56.25-6.21v123.94c0,15.7,2.94,17.01,16.68,18.64Z"/><path class="b" d="M2661.35,459.73c-12.42,0-22.23-9.81-22.23-22.24s9.81-22.24,22.23-22.24,22.57,9.82,22.57,22.24-10.14,22.24-22.57,22.24Z"/></g></g><rect class="c" x="-.42" y=".99" width="2978.42" height="770.14"/></svg>