<?xml version="1.0" encoding="UTF-8"?><svg id="a" xmlns="http://www.w3.org/2000/svg" viewBox="0 0 210.96 209.66"><defs><style>.b{fill:#1b8098;}.c{fill:#706e6f;}.d{opacity:.4;}</style></defs><g class="d"><path class="b" d="M43.62,6.85c55.91-19.76,70,7,84.03,32.64,11.98,21.89,8.84,35.83,2.01,51.03-6.69,14.86-20.92,31.84-40.51,40.54-14.89,6.62-33.61,6.21-47.17-2.83-8.65-5.77-24.54-18.6-30.47-27.14C3.24,89.2-2.61,78.85,1.18,56.13,6.86,22.05,33.15,10.55,43.62,6.85Z"/></g><g><path class="c" d="M143.07,173.81c1.97,.82,4.3-.16,5.11-2.12,.81-1.97-.14-4.29-2.11-5.11-1.97-.82-4.3,.15-5.11,2.12-.81,1.98,.15,4.29,2.12,5.11h0Zm0,0"/><path class="c" d="M72.2,178.7c-1.84-1.22-4.4-.64-5.53,1.25-1.1,1.83-.48,4.27,1.35,5.36,1.85,1.1,4.32,.47,5.4-1.4,1.02-1.78,.46-4.06-1.21-5.21h0Zm0,0"/><path class="c" d="M146.48,111c5.23,0,9.69-3.3,11.43-7.92h29.4c1.74,4.62,6.21,7.92,11.43,7.92,6.73,0,12.21-5.48,12.21-12.21,0-7.54-7.08-13.39-14.48-12l-14.91-27.48c2.02-2.18,3.26-5.09,3.26-8.29,0-6.73-5.48-12.21-12.21-12.21s-12.21,5.48-12.21,12.21c0,3.2,1.24,6.11,3.26,8.29l-14.91,27.48c-7.4-1.39-14.48,4.46-14.48,12,0,6.73,5.48,12.21,12.21,12.21h0Zm26.13-47.77c.71,0,1.4-.06,2.07-.18l14.97,27.59c-1.18,1.31-2.08,2.88-2.61,4.62h-28.89c-.52-1.73-1.43-3.3-2.61-4.62l14.97-27.59c.67,.12,1.37,.18,2.08,.18h0Zm30.51,35.56c0,2.42-1.97,4.38-4.38,4.38s-4.38-1.97-4.38-4.38,1.97-4.38,4.38-4.38,4.38,1.97,4.38,4.38h0Zm-30.51-52.16c2.42,0,4.38,1.97,4.38,4.38s-1.97,4.38-4.38,4.38-4.38-1.97-4.38-4.38,1.97-4.38,4.38-4.38h0Zm-26.13,47.77c2.42,0,4.38,1.97,4.38,4.38s-1.97,4.38-4.38,4.38-4.38-1.97-4.38-4.38,1.97-4.38,4.38-4.38h0Zm0,0"/><path class="c" d="M202.66,185.8v-31.22c4.82-1.64,8.3-6.2,8.3-11.57,0-6.73-5.48-12.21-12.21-12.21-5.01,0-9.31,3.03-11.2,7.35h-32.01c-1.89-4.32-6.19-7.35-11.2-7.35-6.73,0-12.21,5.48-12.21,12.21,0,5.45,3.59,10.08,8.53,11.65v.06c0,2.16,1.75,3.91,3.91,3.91s3.94-1.94,3.92-4.13c3.79-1.37,6.71-4.57,7.7-8.53h30.71c1.01,4.04,4.03,7.28,7.93,8.6v31.22c-3.59,1.22-6.43,4.06-7.65,7.65h-31.27c-1.19-3.51-3.94-6.31-7.42-7.57,0-2.15-1.72-4.01-3.91-4.01s-3.88,1.72-3.91,3.86c-4.94,1.57-8.53,6.19-8.53,11.65,0,6.73,5.48,12.21,12.21,12.21,5.37,0,9.93-3.48,11.57-8.3h31.27c1.64,4.82,6.2,8.3,11.57,8.3,6.73,0,12.21-5.48,12.21-12.21,0-5.37-3.48-9.93-8.3-11.57h0Zm-58.32-38.41c-2.42,0-4.38-1.97-4.38-4.38s1.97-4.38,4.38-4.38,4.38,1.97,4.38,4.38-1.97,4.38-4.38,4.38h0Zm54.41-8.77c2.42,0,4.38,1.97,4.38,4.38s-1.97,4.38-4.38,4.38-4.38-1.97-4.38-4.38,1.97-4.38,4.38-4.38h0Zm-54.41,63.12c-2.42,0-4.38-1.97-4.38-4.38s1.97-4.38,4.38-4.38,4.38,1.97,4.38,4.38-1.97,4.38-4.38,4.38h0Zm54.41,0c-2.42,0-4.38-1.97-4.38-4.38s1.97-4.38,4.38-4.38,4.38,1.97,4.38,4.38-1.97,4.38-4.38,4.38h0Zm0,0"/><path class="c" d="M99.13,164.85h-2.03v-13.47c0-2.16-1.75-3.91-3.91-3.91h-2.97l11.15-30.05c1.32-3.56,.99-7.49-.9-10.79l-12.08-21c-2.09-3.63-5.99-5.89-10.18-5.89h-16.34c-4.19,0-8.09,2.26-10.18,5.89l-12.08,21c-1.89,3.29-2.22,7.23-.9,10.79l11.15,30.04h-2.97c-2.16,0-3.92,1.75-3.92,3.92v13.47h-2.03c-2.55,0-4.48,2.57-3.75,5.03l10.97,36.97c.49,1.66,2.02,2.8,3.75,2.8h36.26c1.73,0,3.26-1.14,3.75-2.8l10.97-36.97c.73-2.44-1.19-5.03-3.75-5.03h0Zm-29.1-52.9c2.42,0,4.38,1.97,4.38,4.38s-1.97,4.38-4.38,4.38-4.38-1.97-4.38-4.38,1.97-4.38,4.38-4.38h0Zm-23.99,2.74c-.51-1.37-.38-2.89,.35-4.16l12.08-21c1.5-2.61,5.12-1.96,7.65-1.96v17.19c-4.82,1.64-8.3,6.2-8.3,11.57,0,6.74,5.48,12.21,12.22,12.21s12.21-5.48,12.21-12.21c0-5.37-3.48-9.93-8.3-11.57v-17.19c2.64,0,5.99-.62,7.65,1.96l12.08,21c.73,1.27,.86,2.78,.35,4.16l-12.16,32.77h-23.65l-12.16-32.77Zm4.75,40.6h38.47v9.55H50.79v-9.55Zm43.08,17.43l-8.64,29.09h-11.29v-4.45c0-5.03-7.83-5.03-7.83,0v4.45h-11.29l-8.64-29.09h47.69Zm0,0"/><path class="c" d="M114.92,38.16c-5.37,0-9.93,3.48-11.57,8.3h-18.78v-6.72c0-2.16-1.75-3.91-3.91-3.91h-21.27c-2.16,0-3.92,1.75-3.92,3.91v6.72h-18.78c-1.64-4.82-6.2-8.3-11.57-8.3-6.74,0-12.21,5.48-12.21,12.21s5.48,12.21,12.21,12.21c5.37,0,9.93-3.48,11.57-8.3h18.78v6.72c0,2.16,1.75,3.92,3.92,3.92h21.27c2.16,0,3.92-1.75,3.92-3.92v-6.72h18.78c1.64,4.82,6.2,8.3,11.57,8.3,6.73,0,12.21-5.48,12.21-12.21s-5.48-12.21-12.21-12.21h0ZM25.13,54.76c-2.42,0-4.38-1.97-4.38-4.38s1.97-4.38,4.38-4.38,4.38,1.97,4.38,4.38-1.97,4.38-4.38,4.38h0Zm51.62,2.34h-13.44v-13.44h13.44v13.44Zm38.18-2.34c-2.42,0-4.38-1.97-4.38-4.38s1.97-4.38,4.38-4.38,4.38,1.97,4.38,4.38-1.97,4.38-4.38,4.38h0Zm0,0"/></g></svg>