<?xml version="1.0" encoding="UTF-8"?><svg id="a" xmlns="http://www.w3.org/2000/svg" viewBox="0 0 205.59 193.1"><defs><style>.b{fill:#1b8098;}.c{fill:#706e6f;}.d{opacity:.4;}</style></defs><g class="d"><path class="b" d="M201.61,83.71c-19.17,56.11-48.9,50.57-77.72,45.67-24.6-4.18-33.59-15.28-41.28-30.08-7.51-14.46-12-36.15-6.68-56.92,4.04-15.79,15.97-30.22,31.47-35.24C117.3,3.93,137.21-.58,147.59,.06c14.45,.89,26.2,2.72,41.68,19.79,23.21,25.59,15.93,53.34,12.34,63.86Z"/></g><g><path class="c" d="M159.8,110.44c-.55-.59-1.27-.84-1.98-.84-.76,0-1.48,.25-2.02,.84-1.1,1.1-1.1,2.91,0,4.01,.55,.55,1.27,.84,2.02,.84s1.48-.29,1.98-.84c.55-.55,.84-1.26,.84-2.02s-.3-1.48-.84-1.98Z"/><path class="c" d="M88.02,62.63c-1.56,0-2.83,1.31-2.83,2.87s1.27,2.83,2.83,2.83,2.87-1.27,2.87-2.83-1.27-2.87-2.87-2.87Z"/><path class="c" d="M88.02,42.43H25.35c-1.56,0-2.83,1.27-2.83,2.83s1.26,2.87,2.83,2.87h62.67c1.6,0,2.87-1.31,2.87-2.87s-1.27-2.83-2.87-2.83Z"/><path class="c" d="M72.54,62.63H25.35c-1.56,0-2.83,1.31-2.83,2.87s1.26,2.83,2.83,2.83h47.19c1.56,0,2.83-1.27,2.83-2.83s-1.26-2.87-2.83-2.87Z"/><path class="c" d="M143.98,109.13h-20.2c-1.31,0-2.36,1.05-2.36,2.36s1.05,2.32,2.36,2.32h20.2c1.27,0,2.28-1.05,2.28-2.32s-1.01-2.36-2.28-2.36Z"/><path class="c" d="M169.37,19.22H5.78c-3.21,0-5.78,2.61-5.78,5.78V153.08c0,3.16,2.57,5.78,5.78,5.78H59.61c.51,0,.93,.45,.88,.96-.89,8.06-7.8,14.27-16.08,14.23-2.28-.01-4.09,1.94-4.09,4.22v10.63c0,1.14,.46,2.19,1.22,2.99,.8,.76,1.86,1.22,2.99,1.22h126.44c2.32,0,4.22-1.9,4.22-4.22V24.99c0-3.16-2.61-5.78-5.82-5.78Zm-62.04,164.1c0,.74-.6,1.35-1.35,1.35H48.75v-2.57c10.86-1.87,19.25-10.88,20.21-22,.06-.7,.61-1.24,1.31-1.24h35.71c.74,0,1.35,.6,1.35,1.35v23.12Zm0-34.46c0,.86-.7,1.56-1.56,1.56H10c-.86,0-1.56-.7-1.56-1.56v-16.62c0-.86,.7-1.56,1.56-1.56H105.77c.86,0,1.56,.7,1.56,1.56v16.62Zm57.98,35.81h-48.1c-.8,0-1.44-.65-1.44-1.44V99.77c0-.9,.74-1.64,1.64-1.64h47.7c.9,0,1.64,.74,1.64,1.64v83.45c0,.8-.65,1.44-1.44,1.44Zm1.44-96.62c0,.9-.74,1.65-1.65,1.65h-53.56c-2.32,0-4.22,1.9-4.22,4.22v26.7c0,.9-.74,1.64-1.64,1.64H10.08c-.9,0-1.64-.74-1.64-1.64V29.3c0-.9,.74-1.64,1.64-1.64H165.11c.9,0,1.64,.74,1.64,1.64v58.75Z"/></g></svg>