<?xml version="1.0" encoding="UTF-8"?><svg id="a" xmlns="http://www.w3.org/2000/svg" viewBox="0 0 221.32 194.86"><defs><style>.b{fill:#1b8098;}.c{fill:#706e6f;}.d{opacity:.4;}</style></defs><g class="d"><path class="b" d="M72.47,63.42c58.78,7.81,59.17,38.05,60.01,67.27,.72,24.95-8.41,35.93-21.41,46.37-12.71,10.2-33.1,18.85-54.51,17.7-16.28-.87-32.76-9.74-40.73-23.96-5.09-9.07-13.41-27.72-14.81-38.02-1.96-14.35-2.46-26.23,11.24-44.75,20.55-27.77,49.19-26.07,60.2-24.61Z"/></g><g><path class="c" d="M199.98,142.28h-55.22c-1.83,0-3.31,1.29-3.31,2.83s1.48,2.79,3.31,2.79h55.22c1.83,0,3.31-1.25,3.31-2.79s-1.48-2.83-3.31-2.83Z"/><path class="c" d="M199.98,125.98h-55.22c-1.83,0-3.31,1.29-3.31,2.83s1.48,2.79,3.31,2.79h55.22c1.83,0,3.31-1.25,3.31-2.79s-1.48-2.83-3.31-2.83Z"/><path class="c" d="M199.98,107.94h-55.22c-1.83,0-3.31,1.29-3.31,2.83s1.48,2.79,3.31,2.79h55.22c1.83,0,3.31-1.25,3.31-2.79s-1.48-2.83-3.31-2.83Z"/><path class="c" d="M217.9,.21c-.42-.13-.88-.21-1.46-.21h-79.35c-5.58,0-11.04,2.38-14.84,6.42-3.75-4.04-9.21-6.42-14.8-6.42H28.06c-.46,0-1.04,.04-1.29,.21-2.04,.46-3.5,2.38-3.5,4.58V167.71c0,2.25,1.5,4.21,3.54,4.67,.38,.08,.79,.21,1.25,.21H107.46c5.58,0,11-2.42,14.8-6.46,3.83,4.04,9.29,6.46,14.84,6.46h79.35c.54,0,1.08-.13,1.58-.29,1.96-.67,3.29-2.5,3.29-4.58V4.79c0-2.08-1.42-3.96-3.42-4.58ZM117.38,153.5c0,5.17-4.21,9.38-9.38,9.38l-75.1,.21-.13-153.41H108.04c5.17,0,9.34,4.21,9.34,9.34V153.5ZM136.51,9.67h75.1V162.87h-75.1c-5.17,0-9.38-4.21-9.38-9.38V19c0-5.13,4.21-9.34,9.38-9.34Z"/><path class="c" d="M104.6,24.97H45.8c-2.11,0-3.83,1.7-3.83,3.81v35.38c0,2.08,1.72,3.76,3.83,3.76h58.82c2.08,0,3.78-1.67,3.78-3.76V28.78c0-2.11-1.7-3.81-3.81-3.81Zm-3.86,34.27c0,.59-.49,1.08-1.11,1.08H50.69c-.59,0-1.08-.49-1.08-1.08v-25.6c0-.62,.49-1.11,1.08-1.11h48.94c.62,0,1.11,.49,1.11,1.11v25.6Z"/><path class="c" d="M201.92,25.46h-20.69c-2.08,0-3.81,1.7-3.81,3.81V63.62c0,2.08,1.72,3.81,3.81,3.81h20.69c2.06,0,3.76-1.72,3.76-3.81V29.27c0-2.11-1.7-3.81-3.76-3.81Zm-3.81,33.99c0,.21-.18,.39-.41,.39h-12.25c-.23,0-.39-.18-.39-.39v-25.99c0-.21,.15-.39,.39-.39h12.25c.23,0,.41,.18,.41,.39v25.99Z"/><path class="c" d="M104.6,109.25h-20.8c-1.79,0-3.33,1.46-3.33,3.25s1.54,3.29,3.33,3.29h20.8c1.79,0,3.29-1.46,3.29-3.29s-1.5-3.25-3.29-3.25Z"/><path class="c" d="M104.6,125.5h-20.8c-1.79,0-3.33,1.5-3.33,3.29s1.54,3.29,3.33,3.29h20.8c1.79,0,3.29-1.5,3.29-3.29s-1.5-3.29-3.29-3.29Z"/><path class="c" d="M104.6,141.8h-20.8c-1.79,0-3.33,1.5-3.33,3.29s1.54,3.29,3.33,3.29h20.8c1.79,0,3.29-1.5,3.29-3.29s-1.5-3.29-3.29-3.29Z"/><path class="c" d="M164.28,26.35h-20.8c-1.79,0-3.25,1.5-3.25,3.29,0,.88,.33,1.67,.88,2.25,.58,.62,1.46,1.04,2.38,1.04h20.8c1.83,0,3.29-1.5,3.29-3.29s-1.46-3.29-3.29-3.29Z"/><path class="c" d="M164.28,42.65h-20.8c-1.79,0-3.25,1.5-3.25,3.29s1.46,3.29,3.25,3.29h20.8c1.83,0,3.29-1.5,3.29-3.29s-1.46-3.29-3.29-3.29Z"/><path class="c" d="M164.28,58.95h-20.8c-1.79,0-3.25,1.5-3.25,3.29s1.46,3.29,3.25,3.29h20.8c1.83,0,3.29-1.5,3.29-3.29s-1.46-3.29-3.29-3.29Z"/></g></svg>