<?xml version="1.0" encoding="UTF-8"?><svg id="a" xmlns="http://www.w3.org/2000/svg" viewBox="0 0 1080 1007"><defs><style>.b{fill:#ff7f30;}.c{fill:none;}</style></defs><rect class="c" x="-.95" y=".42" width="1080.95" height="1006.2"/><g><path class="b" d="M698.47,317.77c-44.86,0-93.28,32.04-108.24,75.48-8.54-52.69-39.16-75.48-89.01-75.48-44.86,0-88.3,32.04-107.67,73.34v-73.34l-124.61,28.48v12.11c29.34,15.67,35.6,28.48,35.6,53.41v156.08c0,36.32-.57,65.51-27.63,73.34v12.1h145.97v-12.1c-24.92-7.12-29.34-34.18-29.34-73.34v-140.28c0-25.78,30.76-58.53,57.11-58.53,32.04,0,51.27,19.23,51.27,59.1v138.28c0,36.32-1.43,66.93-28.48,74.77v12.1h146.69v-12.1c-25.64-6.41-29.2-35.6-29.2-74.77v-136.86c0-28.48,29.91-60.53,56.25-60.53,32.04,0,51.98,19.23,51.98,59.1v104.1c12.1-8.83,27.2-14.1,43.58-14.1s32.9,5.55,45.43,15.24v-107.38c0-86.16-34.18-108.23-89.72-108.23Z"/><path class="b" d="M742.95,662.81c-27.05,0-48.41-21.36-48.41-48.43s21.36-48.43,48.41-48.43,49.15,21.38,49.15,48.43-22.09,48.43-49.15,48.43Z"/></g></svg>